<svg xmlns="http://www.w3.org/2000/svg" width="1200" height="420" viewBox="0 0 1200 420" role="img" aria-labelledby="title desc">
  <title id="title">Consulting Experience Banner</title>
  <desc id="desc">Business and consulting themed banner with collaboration motifs.</desc>
  <defs>
    <linearGradient id="bg" x1="0" y1="0" x2="1" y2="1">
      <stop offset="0%" stop-color="#182a3b"/>
      <stop offset="45%" stop-color="#204b61"/>
      <stop offset="100%" stop-color="#4c7f6f"/>
    </linearGradient>
  </defs>
  <rect width="1200" height="420" fill="url(#bg)"/>
  <text x="70" y="110" fill="#eefcf7" font-family="Segoe UI, Arial, sans-serif" font-size="30" font-weight="700">CONSULTING EXPERIENCE</text>
  <text x="70" y="145" fill="#c9f5e8" font-family="Segoe UI, Arial, sans-serif" font-size="18">Client delivery, migrations, support enablement, and process improvement</text>
  <g transform="translate(70 185)">
    <rect x="0" y="0" width="500" height="170" rx="16" fill="#ffffff" fill-opacity="0.08" stroke="#ffffff" stroke-opacity="0.18"/>
    <rect x="28" y="28" width="444" height="16" rx="8" fill="#b7fff0" fill-opacity="0.5"/>
    <rect x="28" y="60" width="360" height="12" rx="6" fill="#ffffff" fill-opacity="0.28"/>
    <rect x="28" y="84" width="396" height="12" rx="6" fill="#ffffff" fill-opacity="0.22"/>
    <rect x="28" y="108" width="320" height="12" rx="6" fill="#ffffff" fill-opacity="0.18"/>
    <g transform="translate(370 82)">
      <circle cx="45" cy="20" r="20" fill="#9af0d8" fill-opacity="0.7"/>
      <circle cx="90" cy="20" r="20" fill="#9ad5ff" fill-opacity="0.7"/>
      <rect x="55" y="14" width="25" height="12" rx="6" fill="#e9ffff" fill-opacity="0.7"/>
    </g>
  </g>
  <g transform="translate(640 80)" fill="none" stroke="#ddfff7" stroke-opacity="0.35">
    <path d="M40 60 C150 10, 250 20, 330 80 S520 150, 480 250"/>
    <path d="M0 190 C130 130, 250 140, 360 200 S550 275, 520 330"/>
  </g>
  <g fill="#e9fff9">
    <circle cx="680" cy="140" r="8"/><circle cx="820" cy="110" r="8"/><circle cx="960" cy="145" r="8"/><circle cx="1080" cy="220" r="8"/>
    <circle cx="640" cy="270" r="8"/><circle cx="790" cy="240" r="8"/><circle cx="940" cy="275" r="8"/><circle cx="1120" cy="340" r="8"/>
  </g>
</svg>
