<svg xmlns="http://www.w3.org/2000/svg" width="1200" height="420" viewBox="0 0 1200 420" role="img" aria-labelledby="title desc">
  <title id="title">Work Experience Banner</title>
  <desc id="desc">Professional timeline style banner for work experience.</desc>
  <defs>
    <linearGradient id="bg" x1="0" y1="0" x2="1" y2="1">
      <stop offset="0%" stop-color="#1b1837"/>
      <stop offset="55%" stop-color="#2b325f"/>
      <stop offset="100%" stop-color="#2a5a84"/>
    </linearGradient>
  </defs>
  <rect width="1200" height="420" fill="url(#bg)"/>
  <circle cx="150" cy="80" r="120" fill="#ffffff" opacity="0.06"/>
  <text x="70" y="115" fill="#eef2ff" font-family="Segoe UI, Arial, sans-serif" font-size="30" font-weight="700">WORK EXPERIENCE</text>
  <text x="70" y="150" fill="#c9d4ff" font-family="Segoe UI, Arial, sans-serif" font-size="18">Enterprise support, escalations, and operations delivery</text>
  <g transform="translate(70 210)">
    <line x1="0" y1="60" x2="1060" y2="60" stroke="#d9e5ff" stroke-opacity="0.25" stroke-width="4"/>
    <g>
      <circle cx="60" cy="60" r="14" fill="#8ff0ff"/><text x="28" y="105" fill="#eaf3ff" font-family="Segoe UI, Arial, sans-serif" font-size="15">Earlier Roles</text>
      <circle cx="360" cy="60" r="14" fill="#8ad7ff"/><text x="307" y="105" fill="#eaf3ff" font-family="Segoe UI, Arial, sans-serif" font-size="15">Consulting</text>
      <circle cx="690" cy="60" r="14" fill="#9fb9ff"/><text x="635" y="105" fill="#eaf3ff" font-family="Segoe UI, Arial, sans-serif" font-size="15">M365 Support</text>
      <circle cx="980" cy="60" r="18" fill="#9effbf"/><text x="932" y="105" fill="#eaf3ff" font-family="Segoe UI, Arial, sans-serif" font-size="15">Microsoft</text>
    </g>
  </g>
  <g fill="#ffffff" opacity="0.08">
    <rect x="840" y="35" width="280" height="120" rx="14"/>
    <rect x="870" y="65" width="36" height="60" rx="4"/>
    <rect x="918" y="50" width="36" height="75" rx="4"/>
    <rect x="966" y="78" width="36" height="47" rx="4"/>
    <rect x="1014" y="42" width="36" height="83" rx="4"/>
  </g>
</svg>
